<svg xmlns="http://www.w3.org/2000/svg" xmlns:xlink="http://www.w3.org/1999/xlink" width="500" height="302pt" viewBox="0 0 374.69 302"><g id="graph0" class="graph" transform="scale(1 1) rotate(0) translate(4 298)"><title>dependency tree</title><polygon fill="#fff" stroke="none" points="-4 4 -4 -298 370.692 -298 370.692 4 -4 4"/><g id="node1" class="node"><title>phoenix</title><ellipse cx="205.692" cy="-276" fill="none" stroke="#000" rx="38.696" ry="18"/><text x="205.692" y="-271.8" font-family="Times,serif" font-size="14" text-anchor="middle">phoenix</text></g><g id="node2" class="node"><title>poison</title><ellipse cx="33.692" cy="-190" fill="none" stroke="#000" rx="33.886" ry="18"/><text x="33.692" y="-185.8" font-family="Times,serif" font-size="14" text-anchor="middle">poison</text></g><g id="edge1" class="edge"><title>phoenix-&gt;poison</title><path fill="none" stroke="#000" d="M168.912,-270.324C142.428,-265.697 106.656,-256.773 79.0907,-240 68.6233,-233.631 59.063,-224.173 51.4441,-215.26"/><polygon fill="#000" stroke="#000" points="54.037 -212.9 45.023 -207.332 48.597 -217.306 54.037 -212.9"/><text x="125.493" y="-228.8" font-family="Times,serif" font-size="14" text-anchor="middle">~&gt; 1.5 or ~&gt; 2.0</text></g><g id="node3" class="node"><title>phoenix_pubsub</title><ellipse cx="153.692" cy="-190" fill="none" stroke="#000" rx="68.639" ry="18"/><text x="153.692" y="-185.8" font-family="Times,serif" font-size="14" text-anchor="middle">phoenix_pubsub</text></g><g id="edge2" class="edge"><title>phoenix-&gt;phoenix_pubsub</title><path fill="none" stroke="#000" d="M194.468,-258.762C190.503,-252.903 186.067,-246.205 182.184,-240 177.56,-232.609 172.725,-224.465 168.377,-216.975"/><polygon fill="#000" stroke="#000" points="171.203 -214.868 163.185 -207.942 165.134 -218.356 171.203 -214.868"/><text x="213.946" y="-228.8" font-family="Times,serif" font-size="14" text-anchor="middle">~&gt; 1.0.0-rc</text></g><g id="node4" class="node"><title>cowboy</title><ellipse cx="286.692" cy="-104" fill="none" stroke="#000" rx="38.211" ry="18"/><text x="286.692" y="-99.8" font-family="Times,serif" font-size="14" text-anchor="middle">cowboy</text></g><g id="edge3" class="edge"><title>phoenix-&gt;cowboy</title><path fill="none" stroke="#000" d="M226.015,-260.379C232.753,-254.672 239.779,-247.657 244.692,-240 247.691,-235.326 267.442,-169.787 278.759,-131.778"/><polygon fill="#000" stroke="#000" points="282.213 -132.444 281.707 -121.862 275.503 -130.45 282.213 -132.444"/><text x="284.927" y="-185.8" font-family="Times,serif" font-size="14" text-anchor="middle">~&gt; 1.0</text></g><g id="node7" class="node"><title>plug</title><ellipse cx="339.692" cy="-190" fill="none" stroke="#000" rx="27" ry="18"/><text x="339.692" y="-185.8" font-family="Times,serif" font-size="14" text-anchor="middle">plug</text></g><g id="edge6" class="edge"><title>phoenix-&gt;plug</title><path fill="none" stroke="#000" d="M231.647,-262.583C244.28,-256.254 259.543,-248.179 272.692,-240 287.208,-230.971 302.658,-219.789 315.059,-210.387"/><polygon fill="#000" stroke="#000" points="317.305 -213.075 323.108 -204.211 313.044 -207.522 317.305 -213.075"/><text x="311.927" y="-228.8" font-family="Times,serif" font-size="14" text-anchor="middle">~&gt; 1.1</text></g><g id="node5" class="node"><title>cowlib</title><ellipse cx="245.692" cy="-18" fill="none" stroke="#000" rx="34.353" ry="18"/><text x="245.692" y="-13.8" font-family="Times,serif" font-size="14" text-anchor="middle">cowlib</text></g><g id="edge4" class="edge"><title>cowboy-&gt;cowlib</title><path fill="none" stroke="#000" d="M271.803,-87.2383C267.058,-81.5306 262.155,-74.8063 258.723,-68 255.274,-61.162 252.665,-53.3125 250.722,-45.9287"/><polygon fill="#000" stroke="#000" points="254.077 -44.902 248.402 -35.955 247.259 -46.487 254.077 -44.902"/><text x="283.177" y="-56.8" font-family="Times,serif" font-size="14" text-anchor="middle">~&gt; 1.0.0</text></g><g id="node6" class="node"><title>ranch</title><ellipse cx="327.692" cy="-18" fill="none" stroke="#000" rx="29.993" ry="18"/><text x="327.692" y="-13.8" font-family="Times,serif" font-size="14" text-anchor="middle">ranch</text></g><g id="edge5" class="edge"><title>cowboy-&gt;ranch</title><path fill="none" stroke="#000" d="M296.036,-86.3996C299.197,-80.6247 302.686,-74.0724 305.692,-68 309.276,-60.7607 312.953,-52.8101 316.251,-45.4586"/><polygon fill="#000" stroke="#000" points="319.622 -46.489 320.467 -35.928 313.221 -43.657 319.622 -46.489"/><text x="330.927" y="-56.8" font-family="Times,serif" font-size="14" text-anchor="middle">~&gt; 1.0</text></g><g id="edge7" class="edge"><title>plug-&gt;cowboy</title><path fill="none" stroke="#000" d="M329.723,-173.2C322.098,-161.115 311.432,-144.21 302.627,-130.255"/><polygon fill="#000" stroke="#000" points="305.457 -128.181 297.16 -121.591 299.537 -131.916 305.457 -128.181"/><text x="333.927" y="-142.8" font-family="Times,serif" font-size="14" text-anchor="middle">~&gt; 1.0</text></g></g></svg>